<svg xmlns="http://www.w3.org/2000/svg" viewBox="0 0 756.1 600.42"><defs><style>.cls-1{fill:#fafbfc;}.cls-2{fill:#fff;}</style></defs><title>@brand-logo-logo-vector</title><g id="Layer_2" data-name="Layer 2"><g id="Layer_2-2" data-name="Layer 2"><path class="cls-1" d="M123.38,240l15.49,24.6,11.21-13.06Zm0,0,15.49,24.6,11.21-13.06Zm0,0,15.49,24.6,11.21-13.06Zm0,0,15.49,24.6,11.21-13.06Zm0,0,15.49,24.6,11.21-13.06Zm0,0,15.49,24.6,11.21-13.06Zm0,0,15.49,24.6,11.21-13.06ZM530.57,383.81q-2-1.49-6.2-1.49h-7.18v12.55h7.59q7.76-.14,7.76-6.19C532.54,386.43,531.88,384.8,530.57,383.81Zm-4,18.3h-9.4v13.44H526a8.46,8.46,0,0,0,5.65-1.73,5.91,5.91,0,0,0,2-4.77Q533.67,402.23,526.59,402.11Zm44.09-15.51-6.18,18.62h12.44Zm0,0-6.18,18.62h12.44Zm-44.09,15.51h-9.4v13.44H526a8.46,8.46,0,0,0,5.65-1.73,5.91,5.91,0,0,0,2-4.77Q533.67,402.23,526.59,402.11Zm4-18.3q-2-1.49-6.2-1.49h-7.18v12.55h7.59q7.76-.14,7.76-6.19C532.54,386.43,531.88,384.8,530.57,383.81ZM123.38,240l15.49,24.6,11.21-13.06Zm0,0,15.49,24.6,11.21-13.06ZM530.57,383.81q-2-1.49-6.2-1.49h-7.18v12.55h7.59q7.76-.14,7.76-6.19C532.54,386.43,531.88,384.8,530.57,383.81Zm-4,18.3h-9.4v13.44H526a8.46,8.46,0,0,0,5.65-1.73,5.91,5.91,0,0,0,2-4.77Q533.67,402.23,526.59,402.11Zm44.09-15.51-6.18,18.62h12.44Zm0,0-6.18,18.62h12.44Zm-44.09,15.51h-9.4v13.44H526a8.46,8.46,0,0,0,5.65-1.73,5.91,5.91,0,0,0,2-4.77Q533.67,402.23,526.59,402.11Zm5.95-13.43c0-2.25-.66-3.88-2-4.87s-3.38-1.49-6.2-1.49h-7.18v12.55h7.59Q532.54,394.73,532.54,388.68ZM123.38,240l15.49,24.6,11.21-13.06Zm620.09,95.8q-161.75.08-323.5,0c-10.11,0-10.12,0-10.12-10.24q0-156.46,0-312.91C409.85,1.2,408.78.16,397.36.16,360.58.15,323.79.34,287,0c-7.33-.07-12.59,2.39-17,7.73-8,9.63-16.09,19.22-24.11,28.84-19.9,23.85-39.71,47.77-59.69,71.55-17.25,20.53-34.8,40.81-52,61.35-22.38,26.67-44.47,53.58-66.89,80.22-20.32,24.16-41,48-61.3,72.21-3.14,3.75-6,7.83-5.95,13.47q.27,55.54,0,111.1c0,5.15,2.15,7.45,6.69,8.19a47,47,0,0,0,7.49.58q118.29,0,236.57,0c5.73,0,11.46-1,17.19-1.43,6.51-.51,9.18,2.69,8.9,9.05-.22,5.13,0,10.27,0,16.23a165.5,165.5,0,0,0,24.43-21.8c3.66-3.88,7.18-4.62,11.91-1.46,8.55,5.72,17.64,10.64,26.09,16.5,5,3.49,9.11,3,13.76-.21,7-4.85,14.41-9.19,21.26-14.28,5.54-4.11,9.89-3,13.54,2a78.57,78.57,0,0,0,11,12.33c2.71,2.41,4.73,7.65,8.51,6.39,4.78-1.6,2.33-7.06,2.41-10.79.27-12.7.11-12.71,12.16-12.46,1,0,2,0,3,0q159.1,0,318.21.06c4.67,0,9-.57,13-3.09V337.33A41.3,41.3,0,0,0,743.47,335.78ZM168.42,155.72a42.66,42.66,0,0,1,8.24-13.95A37.51,37.51,0,0,1,189.08,132a24.57,24.57,0,0,1,13.58-2.36A22.92,22.92,0,0,1,215,135.26l-12.53,14.61a9.66,9.66,0,0,0-7.71-2.67,11.68,11.68,0,0,0-7.33,4.4c-2.25,2.62-3.44,5.18-3.59,7.68a7,7,0,0,0,2.45,6.06q2.34,2,6.39,1.13T204.16,161a71.8,71.8,0,0,1,13.24-6.61q14.13-5,24.1,3.59,8,6.84,7.36,16.75t-9.6,20.39a43.14,43.14,0,0,1-14.12,11.1,26.58,26.58,0,0,1-15,2.78,24.92,24.92,0,0,1-13.22-6.09l12.61-14.69c3.25,2.8,6.37,4,9.36,3.66s6.11-2.43,9.36-6.22a12.45,12.45,0,0,0,3.36-7.08,6.78,6.78,0,0,0-2.6-5.88,7.93,7.93,0,0,0-7-2q-3.74.74-10.57,4.81a101.92,101.92,0,0,1-11.74,6.16q-15.93,6.83-26.07-1.88a18.83,18.83,0,0,1-6.39-10.59A25,25,0,0,1,168.42,155.72Zm37.83,73.13a11.53,11.53,0,0,1-9.57,11.1,9.11,9.11,0,0,1-10.1-8.67,11.54,11.54,0,0,1,9.53-11.14,9.13,9.13,0,0,1,10.14,8.71Zm-94-10.37,80,29.7-13.51,15.73-14.39-6.19-17.23,20.07L155.51,291l-13.43,15.65-41.63-74.44ZM82.91,375.63,22.15,323.48l36-41.94,11.3,9.7L46,318.53l12.81,11,19.77-23,10.85,9.31-19.77,23,14.52,12.47,23.36-27.21,11.26,9.67Zm48.42-55.49a10.43,10.43,0,0,1-6.79,3.85,9.11,9.11,0,0,1-10.1-8.66A11.54,11.54,0,0,1,124,304.19a9.11,9.11,0,0,1,10.14,8.7A10.56,10.56,0,0,1,131.33,320.14Zm138.28,15.74c-43.54-.11-87.07-.05-130.61-.09-1.66,0-3.92.81-4.83-1.05-1.17-2.39,1.45-3.39,2.65-4.81Q168.7,292,200.66,254.14c15.21-17.95,30.63-35.73,45.88-53.66,6.8-8,13.36-16.21,20.16-24.22,2.7-3.17,5.77-6,10.09-10.53,0,56,0,109.59.07,163.18C276.87,334.25,274.68,335.89,269.61,335.88ZM254.67,152a10.51,10.51,0,0,1,2.78-7.29,10.62,10.62,0,0,1,6.75-3.85,9.13,9.13,0,0,1,10.14,8.71,11.53,11.53,0,0,1-9.57,11.1,9.11,9.11,0,0,1-10.1-8.67Zm44.4-28.17-21.83-18.73L221.55,91.16l13.5-15.73,36,11.41L254.29,53,267.86,37.2,290,90.2l21.82,18.73Zm32.44-36.87a10.39,10.39,0,0,1-6.78,3.85,9.11,9.11,0,0,1-10.1-8.66A11.54,11.54,0,0,1,324.16,71a9.13,9.13,0,0,1,10.14,8.7A10.57,10.57,0,0,1,331.51,86.91ZM539.34,420q-4.58,3.71-13.06,3.76H506.94V374h17.43q9.06,0,13.74,3.47t4.68,10.17a11.28,11.28,0,0,1-1.88,6.44,10.8,10.8,0,0,1-5.23,4.08,10.48,10.48,0,0,1,6,3.87,11.33,11.33,0,0,1,2.21,7.11Q543.92,416.33,539.34,420Zm43.82,3.76-3.45-10.25h-18l-3.42,10.25h-10.9L565.93,374h9.5l18.63,49.76Zm27.7-32.43a27.54,27.54,0,0,0,7.2,3.07q8.75,2.64,12.74,6.53a13,13,0,0,1,4,9.71,12,12,0,0,1-4.88,10.13q-4.89,3.68-13.16,3.68a25.42,25.42,0,0,1-10.46-2.1,16.64,16.64,0,0,1-7.2-5.76,14.79,14.79,0,0,1-2.48-8.48h10.29q0,8.24,9.85,8.24a9.56,9.56,0,0,0,5.7-1.49,4.84,4.84,0,0,0,2.06-4.15,5.25,5.25,0,0,0-2.06-4.46,26.58,26.58,0,0,0-7.38-3.28,51.87,51.87,0,0,1-8.44-3.41q-8.48-4.57-8.48-12.33a12,12,0,0,1,2.28-7.2,14.83,14.83,0,0,1,6.52-4.94,24.71,24.71,0,0,1,9.56-1.78,22.33,22.33,0,0,1,9.5,1.94,15.07,15.07,0,0,1,6.48,5.45,14.33,14.33,0,0,1,2.3,8H624.55a6.73,6.73,0,0,0-2.15-5.32,8.9,8.9,0,0,0-6-1.9,9.46,9.46,0,0,0-5.85,1.59,5,5,0,0,0-2.08,4.19A4.8,4.8,0,0,0,610.86,391.35Zm41.79,32.43H642.39V374h10.26Zm20.83-11.41q2.44,3.72,7.71,3.72c3.16,0,5.53-.72,7.09-2.17s2.45-3.68,2.68-6.71h10.25q-.57,8-5.93,12.64t-14.09,4.62q-9.59,0-15.06-6.45t-5.49-17.68v-3a29.89,29.89,0,0,1,2.53-12.64,19,19,0,0,1,7.23-8.39,20.22,20.22,0,0,1,10.92-2.93q8.61,0,13.88,4.62t6.08,12.95H691c-.25-3.21-1.15-5.54-2.68-7s-3.88-2.17-7-2.17c-3.42,0-6,1.23-7.67,3.68s-2.57,6.25-2.62,11.4v3.76Q671,408.64,673.48,412.37Zm-109-7.15h12.44l-6.26-18.62Zm-37.91-3.11h-9.4v13.44H526a8.46,8.46,0,0,0,5.65-1.73,5.91,5.91,0,0,0,2-4.77Q533.67,402.23,526.59,402.11Zm5.95-13.43c0-2.25-.66-3.88-2-4.87s-3.38-1.49-6.2-1.49h-7.18v12.55h7.59Q532.54,394.73,532.54,388.68ZM123.38,240l15.49,24.6,11.21-13.06Zm0,0,15.49,24.6,11.21-13.06ZM530.57,383.81q-2-1.49-6.2-1.49h-7.18v12.55h7.59q7.76-.14,7.76-6.19C532.54,386.43,531.88,384.8,530.57,383.81Zm-4,18.3h-9.4v13.44H526a8.46,8.46,0,0,0,5.65-1.73,5.91,5.91,0,0,0,2-4.77Q533.67,402.23,526.59,402.11Zm44.09-15.51-6.18,18.62h12.44Zm0,0-6.18,18.62h12.44Zm-44.09,15.51h-9.4v13.44H526a8.46,8.46,0,0,0,5.65-1.73,5.91,5.91,0,0,0,2-4.77Q533.67,402.23,526.59,402.11Zm4-18.3q-2-1.49-6.2-1.49h-7.18v12.55h7.59q7.76-.14,7.76-6.19C532.54,386.43,531.88,384.8,530.57,383.81ZM123.38,240l15.49,24.6,11.21-13.06Zm0,0,15.49,24.6,11.21-13.06ZM530.57,383.81q-2-1.49-6.2-1.49h-7.18v12.55h7.59q7.76-.14,7.76-6.19C532.54,386.43,531.88,384.8,530.57,383.81Zm-4,18.3h-9.4v13.44H526a8.46,8.46,0,0,0,5.65-1.73,5.91,5.91,0,0,0,2-4.77Q533.67,402.23,526.59,402.11Zm0,0h-9.4v13.44H526a8.46,8.46,0,0,0,5.65-1.73,5.91,5.91,0,0,0,2-4.77Q533.67,402.23,526.59,402.11Zm4-18.3q-2-1.49-6.2-1.49h-7.18v12.55h7.59q7.76-.14,7.76-6.19C532.54,386.43,531.88,384.8,530.57,383.81ZM123.38,240l15.49,24.6,11.21-13.06Zm0,0,15.49,24.6,11.21-13.06Zm0,0,15.49,24.6,11.21-13.06Zm0,0,15.49,24.6,11.21-13.06Zm0,0,15.49,24.6,11.21-13.06Zm0,0,15.49,24.6,11.21-13.06Zm0,0,15.49,24.6,11.21-13.06Z"/><path class="cls-1" d="M341.81,600.42c-9.59-5.58-11.78-16.4-17.41-24.78-1.6-2.38-.93-4.78,2.42-5.7,11.74-3.2,23.53-3.94,35.38-.74,2.72.74,4.9,2.84,3.45,5.54-5,9.2-6.66,20.75-17.79,25.68Z"/><path class="cls-1" d="M550.47,112.89q0,46.86,0,93.74c0,22.82,19.86,43.64,42.63,46.24a66.18,66.18,0,0,0,35.7-5.29c19.44-8.71,27.19-24.94,27.34-44.77.44-62.24.16-124.48.16-186.72,0-9.82,1.48-11.36,11.34-11.38q37.8-.06,75.6,0c9.27,0,11.33,2.15,11.33,11.72,0,58.72.64,117.44-.24,176.14-.49,32.47-6.49,63.94-28.33,90.09-17,20.41-38.88,33-64.39,39.39-12.9,3.25-26.13,4-39.41,5a300.59,300.59,0,0,1-44.22-.46c-34.41-2.63-67.06-10.94-92.18-36.71-18.9-19.39-27.72-43.85-32.1-70.12-2.94-17.64-3.13-35.44-3.08-53.27.14-49.9,0-99.79.06-149.69,0-9.92,1.94-12,11.91-12q37.72-.15,75.47,0c9.38,0,12.38,3.18,12.39,12.93Q550.51,65.27,550.47,112.89Z"/><path class="cls-1" d="M404,500.28a34,34,0,0,1-1.53,4.35c-7.53,14.79-14.29,30-22.84,44.24-1.76,2.93-3.52,5.33-7.77,3.93-17.73-5.86-35.62-4.49-53.36-.17-4,1-6.28,0-8.17-3.07-9.57-15.69-17.76-32.1-25.75-48.63-1.94-4-.92-6.85,2.32-9.82,5.92-5.42,11.53-11.15,17.72-16.32,3.36-2.81,5.94-3.1,9.34-1,8.27,5.23,16.78,10.12,24.77,15.75,5,3.52,9,4.3,14.18.31,6.73-5.21,14.06-9.64,21-14.63,2.56-1.85,5.13-2.82,7.47-.58,7.26,7,14.32,14.16,21.31,21.41C403.61,497,403.6,498.86,404,500.28Z"/><path class="cls-2" d="M10.83,210.08,42,223.21,24.27,194.42l9.57-11.15L69,213.42l-7.29,8.5-8.2-7L37.39,199.64l17.71,30-4.81,5.6L18,222.23l17.52,13.61,8.21,7-7.27,8.46L1.29,221.2Z"/><path class="cls-2" d="M79.08,171.48,67.65,184.8,76,192l13.51-15.74,6.51,5.6-20.77,24.2L40.16,175.91,61,151.66l6.54,5.62L54,173.06l7.4,6.35L72.8,166.09Zm-36.4-17.54,7.37-8.59,1.82,13.21-5.71,6.62Z"/><path class="cls-2" d="M96.21,123.83l-9,10.55,28.59,24.54-7.26,8.47-28.6-24.54L71,153.2l-6.54-5.61,25.2-29.37Z"/><path class="cls-2" d="M137.68,99.3a27.31,27.31,0,0,1,7.46,9.71,18.52,18.52,0,0,1,1.44,10.65,19.81,19.81,0,0,1-4.73,9.83,20.08,20.08,0,0,1-8.89,6.19,18.51,18.51,0,0,1-10.55.35,26.52,26.52,0,0,1-10.56-5.52l-2-1.69a27.44,27.44,0,0,1-7.48-9.72A18.5,18.5,0,0,1,101,108.44a21.2,21.2,0,0,1,13.71-16,18.84,18.84,0,0,1,10.72-.26,26.7,26.7,0,0,1,10.67,5.75Zm-8.87,7.35q-5.24-4.5-9.45-5.08a7.41,7.41,0,0,0-7,2.68q-5.46,6.38,3.78,14.93l2.56,2.24q5.16,4.44,9.41,5.1a7.35,7.35,0,0,0,7.14-2.71,7.26,7.26,0,0,0,1.52-7.28q-1.23-4.08-6.33-8.49Z"/><path class="cls-2" d="M160,107.41,124.84,77.26l9.71-11.32a21.84,21.84,0,0,1,9.3-6.56,19.55,19.55,0,0,1,10.94-.69A23.79,23.79,0,0,1,165.23,64l1.61,1.39a23.83,23.83,0,0,1,6.9,9.46,19.59,19.59,0,0,1,1.06,10.88,21.46,21.46,0,0,1-4.91,10.14Zm-21.33-33,22.08,18.95,2.53-2.95a8.68,8.68,0,0,0,2.21-7.82q-.92-4.18-6-8.57l-1.52-1.31q-5.1-4.36-9.35-4.63a8.86,8.86,0,0,0-7.47,3.48Z"/><path class="cls-2" d="M197.78,29.28A27.43,27.43,0,0,1,205.24,39a18.52,18.52,0,0,1,1.44,10.65A19.81,19.81,0,0,1,202,59.47a20.1,20.1,0,0,1-8.9,6.19,18.47,18.47,0,0,1-10.54.36A26.52,26.52,0,0,1,172,60.5l-2-1.7a27.41,27.41,0,0,1-7.48-9.71,18.51,18.51,0,0,1-1.44-10.66,20.06,20.06,0,0,1,4.76-9.89,19.75,19.75,0,0,1,9-6.14,18.84,18.84,0,0,1,10.72-.26,26.7,26.7,0,0,1,10.67,5.75Zm-8.87,7.35q-5.24-4.5-9.45-5.07a7.38,7.38,0,0,0-7,2.67Q167,40.6,176.23,49.17l2.56,2.24q5.16,4.43,9.41,5.1a7.39,7.39,0,0,0,7.14-2.71,7.3,7.3,0,0,0,1.52-7.29q-1.23-4.08-6.33-8.49Z"/></g></g></svg>