<svg xmlns="http://www.w3.org/2000/svg" viewBox="0 0 651.15 282.17"><defs><style>.cls-1{fill:#fff;}</style></defs><title>@brand-logo-text-primary_4</title><g id="Layer_2" data-name="Layer 2"><g id="Layer_1-2" data-name="Layer 1"><path class="cls-1" d="M122.05,175.41H3.45V151.88l56-59.66q11.52-12.6,17-22T82,52.41q0-11.53-5.82-18.12t-16.64-6.6q-11.65,0-18.36,8t-6.72,21.1H0A56.62,56.62,0,0,1,7.55,27.93,53.13,53.13,0,0,1,28.88,7.43Q42.67,0,60.13,0q26.74,0,41.54,12.83t14.79,36.25q0,12.84-6.65,26.15T87,106.24L47.65,147.72h74.4Z"/><path class="cls-1" d="M230.6,155H194.88l-6.79,20.37H166.43l36.8-98.88h18.88l37,98.88H237.46Zm-30.22-16.51H225.1l-12.43-37Z"/><path class="cls-1" d="M281.87,101.93l.61,8.49q7.88-9.84,21.12-9.85,11.68,0,17.39,6.86t5.84,20.51v47.47H307.2v-47q0-6.25-2.71-9.07t-9-2.82A13.51,13.51,0,0,0,283,123.59v51.82H263.4V101.93Z"/><path class="cls-1" d="M338.36,140.33a40.88,40.88,0,0,1,3.95-18.27,28.92,28.92,0,0,1,11.36-12.42,33.18,33.18,0,0,1,17.23-4.39q13.94,0,22.76,8.53T403.49,137l.13,4.71q0,15.84-8.85,25.43T371,176.68q-14.89,0-23.78-9.55t-8.88-26Zm18.4,1.3q0,9.83,3.69,15a13.26,13.26,0,0,0,21,.06q3.77-5.13,3.76-16.41,0-9.63-3.76-14.92a12.19,12.19,0,0,0-10.56-5.3,12.05,12.05,0,0,0-10.45,5.26Q356.76,130.6,356.76,141.63Z"/><path class="cls-1" d="M449.3,157.64a5.53,5.53,0,0,0-3.12-5q-3.12-1.81-10-3.24-22.93-4.81-22.94-19.49,0-8.55,7.1-14.29t18.57-5.73q12.24,0,19.58,5.76a18.18,18.18,0,0,1,7.34,15H448.65a8.35,8.35,0,0,0-2.38-6.1q-2.37-2.4-7.43-2.4a10.24,10.24,0,0,0-6.71,2,6.18,6.18,0,0,0-2.38,5,5.27,5.27,0,0,0,2.71,4.6q2.7,1.75,9.12,3a74.41,74.41,0,0,1,10.81,2.88q13.61,5,13.61,17.29,0,8.79-7.55,14.23T439,176.6a33.86,33.86,0,0,1-14.35-2.89,24,24,0,0,1-9.83-7.9A18.34,18.34,0,0,1,411.21,155h16.28a9,9,0,0,0,3.39,7,13.46,13.46,0,0,0,8.44,2.44c3.29,0,5.77-.63,7.46-1.88A5.81,5.81,0,0,0,449.3,157.64Z"/><path class="cls-1" d="M538.69,176.51q-13.12,0-21.38-8T509.06,147v-1.54a36.05,36.05,0,0,1,3.48-16.09,25.5,25.5,0,0,1,9.85-10.92,27.57,27.57,0,0,1,14.53-3.84q12.26,0,19.29,7.73t7,21.9v6.51h-38a14.79,14.79,0,0,0,4.66,9.38,14.08,14.08,0,0,0,9.85,3.54q9.21,0,14.4-6.68l7.83,8.77a23.81,23.81,0,0,1-9.71,7.92A31.89,31.89,0,0,1,538.69,176.51Zm-1.82-49a10,10,0,0,0-7.7,3.21c-2,2.15-3.23,5.21-3.78,9.21h22.18V138.6q-.11-5.32-2.87-8.23T536.87,127.46Z"/><path class="cls-1" d="M585.62,120.3l.46,6.16q5.86-7.17,15.84-7.18,10.65,0,14.62,8.41,5.81-8.41,16.55-8.41,9,0,13.34,5.22t4.39,15.71v35.2H636V140.27q0-4.7-1.83-6.85t-6.47-2.17q-6.62,0-9.16,6.32l0,37.84H603.91V140.32q0-4.78-1.89-6.93t-6.41-2.14q-6.27,0-9.07,5.2v39H571.82V120.3Z"/><path class="cls-1" d="M45.34,249.47H21l-4.62,13.86H1.68l25-67.27H39.57l25.18,67.27H50ZM24.78,238.24H41.6l-8.46-25.18Z"/><path class="cls-1" d="M114.17,239.27q0,11.32-5.14,18.15a16.5,16.5,0,0,1-13.89,6.81,15.27,15.27,0,0,1-12-5.16v23.1H70.05V214.32H82.19l.45,4.8a15.37,15.37,0,0,1,12.41-5.71q9.06,0,14.09,6.71t5,18.48Zm-13.09-1q0-6.84-2.43-10.55a7.87,7.87,0,0,0-7-3.71q-6.17,0-8.47,4.71v20.06q2.4,4.84,8.56,4.85Q101.08,253.68,101.08,238.32Z"/><path class="cls-1" d="M144.28,264.21q-10.56,0-17.2-6.48t-6.64-17.26v-1.25a29.11,29.11,0,0,1,2.8-12.94,20.64,20.64,0,0,1,7.92-8.79,22.31,22.31,0,0,1,11.7-3.08q9.85,0,15.52,6.21T164,238.25v5.23H133.45A11.92,11.92,0,0,0,137.2,251a11.37,11.37,0,0,0,7.93,2.84q7.41,0,11.58-5.37l6.3,7.06a19.26,19.26,0,0,1-7.81,6.37A25.66,25.66,0,0,1,144.28,264.21Zm-1.46-39.46a8,8,0,0,0-6.2,2.59,13.44,13.44,0,0,0-3,7.4h17.85v-1a9.56,9.56,0,0,0-2.31-6.62A8.27,8.27,0,0,0,142.82,224.75Z"/><path class="cls-1" d="M182.78,216.28l.39,5.43a16.43,16.43,0,0,1,13.53-6.3q7.47,0,11.13,4.39t3.74,13.13v30.4H199V233.24q0-4-1.74-5.81t-5.78-1.8a8.64,8.64,0,0,0-8,4.52v33.18H171v-47Z"/><path class="cls-1" d="M248.35,263.33a14,14,0,0,1-1.26-4.22,15.21,15.21,0,0,1-11.87,5.09,16.74,16.74,0,0,1-11.46-4,12.87,12.87,0,0,1-4.54-10.09q0-7.49,5.54-11.48t16-4h5.78v-2.69a7.77,7.77,0,0,0-1.67-5.22c-1.12-1.3-2.88-2-5.29-2a7.54,7.54,0,0,0-5,1.52,5.19,5.19,0,0,0-1.8,4.18H220.26a12.58,12.58,0,0,1,2.53-7.57,16.6,16.6,0,0,1,7.13-5.45,26,26,0,0,1,10.35-2q8.68,0,13.8,4.37t5.11,12.28v20.4q0,6.69,1.87,10.13v.74ZM238,254.59a10.86,10.86,0,0,0,5.13-1.24,8.13,8.13,0,0,0,3.48-3.33v-8.09h-4.7q-9.44,0-10,6.53l0,.73a5,5,0,0,0,1.65,3.87A6.39,6.39,0,0,0,238,254.59Z"/><path class="cls-1" d="M293.68,250.6a4,4,0,0,0-2.23-3.56,25.5,25.5,0,0,0-7.18-2.32q-16.42-3.45-16.43-14a12.68,12.68,0,0,1,5.09-10.24q5.08-4.09,13.3-4.1,8.77,0,14,4.13a13,13,0,0,1,5.26,10.73h-12.3a6,6,0,0,0-1.71-4.37c-1.13-1.15-2.91-1.72-5.32-1.72a7.39,7.39,0,0,0-4.81,1.4,4.43,4.43,0,0,0-1.7,3.58,3.79,3.79,0,0,0,1.93,3.3,19.85,19.85,0,0,0,6.54,2.17,54.44,54.44,0,0,1,7.75,2.06q9.75,3.59,9.75,12.39a12,12,0,0,1-5.41,10.2q-5.4,3.9-14,3.9A24.37,24.37,0,0,1,276,262.11a17.17,17.17,0,0,1-7-5.66,13.12,13.12,0,0,1-2.56-7.77h11.67a6.38,6.38,0,0,0,2.43,5,9.55,9.55,0,0,0,6,1.75,8.91,8.91,0,0,0,5.34-1.34A4.18,4.18,0,0,0,293.68,250.6Z"/><path class="cls-1" d="M378.47,263.33h-41.3v-7.71l21.55-18a20.45,20.45,0,0,0,4.13-4.49,8.38,8.38,0,0,0,1.27-4.49,5.07,5.07,0,0,0-2-4.28,8.8,8.8,0,0,0-5.47-1.51,8.29,8.29,0,0,0-6,2.11,7.16,7.16,0,0,0-2.21,5.42H336.15a16.16,16.16,0,0,1,2.58-8.94,17,17,0,0,1,7.28-6.21A24.67,24.67,0,0,1,356.67,213q9.45,0,14.54,3.88a12.65,12.65,0,0,1,5.09,10.68,15.08,15.08,0,0,1-2,7.58q-2,3.49-7.39,8.22l-12,10.09h23.5Z"/><path class="cls-1" d="M421,218.24l.37,5a15.85,15.85,0,0,1,13-5.88q8.72,0,12,6.88,4.76-6.87,13.55-6.88,7.33,0,10.92,4.28t3.58,12.85v28.8H462.27V234.57q0-3.82-1.5-5.6t-5.29-1.77a7.52,7.52,0,0,0-7.5,5.16l0,31H436V234.62q0-3.93-1.54-5.67t-5.25-1.75a7.8,7.8,0,0,0-7.42,4.25v31.88h-12V218.24Z"/><path class="cls-1" d="M504.36,264.16q-9.92,0-16.14-6.08T482,241.87V240.7a27.25,27.25,0,0,1,2.62-12.15,19.25,19.25,0,0,1,7.44-8.25,20.89,20.89,0,0,1,11-2.9q9.25,0,14.56,5.84t5.32,16.54v4.92H494.19a11.18,11.18,0,0,0,3.53,7.08,10.6,10.6,0,0,0,7.43,2.67,13,13,0,0,0,10.88-5L522,256a18,18,0,0,1-7.34,6A24.06,24.06,0,0,1,504.36,264.16ZM503,227.11a7.54,7.54,0,0,0-5.82,2.43,12.66,12.66,0,0,0-2.85,7h16.75v-1a9,9,0,0,0-2.16-6.22A7.8,7.8,0,0,0,503,227.11Z"/><path class="cls-1" d="M553.53,251.14a3.8,3.8,0,0,0-2.14-3.41,24.28,24.28,0,0,0-6.87-2.22q-15.74-3.3-15.74-13.37a12.12,12.12,0,0,1,4.88-9.8q4.86-3.94,12.73-3.94,8.4,0,13.44,4a12.46,12.46,0,0,1,5,10.27H553.08a5.7,5.7,0,0,0-1.63-4.18q-1.63-1.65-5.1-1.65a7,7,0,0,0-4.6,1.35,4.21,4.21,0,0,0-1.63,3.42,3.62,3.62,0,0,0,1.85,3.16,19.26,19.26,0,0,0,6.26,2.08,49.91,49.91,0,0,1,7.42,2q9.33,3.42,9.33,11.86a11.5,11.5,0,0,1-5.17,9.76q-5.19,3.73-13.37,3.73a23.32,23.32,0,0,1-9.85-2,16.41,16.41,0,0,1-6.75-5.42,12.57,12.57,0,0,1-2.44-7.44h11.17a6.13,6.13,0,0,0,2.32,4.81,9.18,9.18,0,0,0,5.79,1.68,8.52,8.52,0,0,0,5.12-1.29A4,4,0,0,0,553.53,251.14Z"/><path class="cls-1" d="M592.32,264.12q-9.5,0-15.45-5.82t-6-15.5v-1.12a26.13,26.13,0,0,1,2.51-11.62,18.51,18.51,0,0,1,7.12-7.89A19.94,19.94,0,0,1,591,219.4q8.85,0,13.93,5.58t5.08,15.83v4.7H582.59a10.73,10.73,0,0,0,3.37,6.78,10.17,10.17,0,0,0,7.11,2.55A12.44,12.44,0,0,0,603.48,250l5.66,6.34a17.29,17.29,0,0,1-7,5.72A23,23,0,0,1,592.32,264.12ZM591,228.69a7.19,7.19,0,0,0-5.56,2.32,12,12,0,0,0-2.73,6.65h16v-.92a8.55,8.55,0,0,0-2.07-6A7.42,7.42,0,0,0,591,228.69Z"/><path class="cls-1" d="M640,251.41a3.72,3.72,0,0,0-2.09-3.33,24,24,0,0,0-6.72-2.17q-15.39-3.22-15.39-13.08a11.84,11.84,0,0,1,4.77-9.58q4.76-3.85,12.45-3.85c5.48,0,9.85,1.29,13.14,3.87a12.18,12.18,0,0,1,4.92,10H639.51a5.56,5.56,0,0,0-1.59-4.08q-1.6-1.62-5-1.62a6.86,6.86,0,0,0-4.5,1.32,4.14,4.14,0,0,0-1.59,3.35,3.53,3.53,0,0,0,1.81,3.08,18.48,18.48,0,0,0,6.12,2,49.56,49.56,0,0,1,7.25,1.93q9.13,3.34,9.13,11.6a11.28,11.28,0,0,1-5.06,9.55Q641,264.13,633,264.12a22.76,22.76,0,0,1-9.62-1.93,16.14,16.14,0,0,1-6.6-5.3,12.36,12.36,0,0,1-2.39-7.28h10.92a6,6,0,0,0,2.27,4.71,9,9,0,0,0,5.66,1.63,8.38,8.38,0,0,0,5-1.25A3.92,3.92,0,0,0,640,251.41Z"/><path class="cls-1" d="M262.25,41.13H249.69l-2.62,7.55h-5.86l12.24-32.42h5.06l12.26,32.42H264.9Zm-11-4.54h9.4L256,23.14Z"/><path class="cls-1" d="M294,36.88q0,5.58-2.54,8.91a8.81,8.81,0,0,1-13.15.73V57.94h-5.41V24.59h5l.23,2.45a7.92,7.92,0,0,1,6.47-2.9,8.23,8.23,0,0,1,6.92,3.29c1.67,2.19,2.5,5.22,2.5,9.11Zm-5.39-.47a10.09,10.09,0,0,0-1.43-5.72A4.68,4.68,0,0,0,283,28.57a5,5,0,0,0-4.76,2.74V42a5,5,0,0,0,4.8,2.8,4.64,4.64,0,0,0,4-2.08C288.08,41.33,288.56,39.23,288.56,36.41Z"/><path class="cls-1" d="M311.14,29.53a13.36,13.36,0,0,0-2.21-.18q-3.72,0-5,2.85V48.68h-5.41V24.59h5.17l.13,2.69a6.11,6.11,0,0,1,5.43-3.14,5.25,5.25,0,0,1,1.92.31Z"/><path class="cls-1" d="M324.74,49.12a11.19,11.19,0,0,1-8.34-3.24,11.74,11.74,0,0,1-3.19-8.63v-.66a14.42,14.42,0,0,1,1.39-6.45,10.65,10.65,0,0,1,3.91-4.42,10.33,10.33,0,0,1,5.61-1.58,9.46,9.46,0,0,1,7.6,3.14q2.68,3.13,2.68,8.88v2.19H318.66a7.22,7.22,0,0,0,2,4.71,6,6,0,0,0,4.4,1.74,7.34,7.34,0,0,0,6.06-3L334,44.58a9.67,9.67,0,0,1-3.86,3.35A12.15,12.15,0,0,1,324.74,49.12Zm-.65-20.64A4.54,4.54,0,0,0,320.5,30a8.1,8.1,0,0,0-1.75,4.34h10.31V34a6.57,6.57,0,0,0-1.45-4.11A4.54,4.54,0,0,0,324.09,28.48Z"/><path class="cls-1" d="M343.62,24.59l.15,2.78a8.69,8.69,0,0,1,7-3.23q7.51,0,7.66,8.62V48.68H353V33.07a5,5,0,0,0-1-3.4,4.21,4.21,0,0,0-3.24-1.1,5.22,5.22,0,0,0-4.88,3V48.68h-5.41V24.59Z"/><path class="cls-1" d="M362.94,36.45a14.34,14.34,0,0,1,2.58-8.94,8.31,8.31,0,0,1,6.93-3.37,7.88,7.88,0,0,1,6.19,2.67V14.48h5.41v34.2h-4.9l-.27-2.5a8,8,0,0,1-6.48,2.94,8.19,8.19,0,0,1-6.84-3.41C363.81,43.44,362.94,40.36,362.94,36.45Zm5.41.47a10,10,0,0,0,1.42,5.73,4.56,4.56,0,0,0,4,2.06,5.12,5.12,0,0,0,4.86-3V31.47a5,5,0,0,0-4.81-2.9,4.64,4.64,0,0,0-4.05,2.08Q368.36,32.74,368.35,36.92Z"/><path class="cls-1" d="M404.08,48.68a8.74,8.74,0,0,1-.62-2.25,9.1,9.1,0,0,1-12.24.62,6.63,6.63,0,0,1-2.3-5.12A6.85,6.85,0,0,1,391.78,36Q394.65,34,400,34h3.31V32.38a4.26,4.26,0,0,0-1-3,4.19,4.19,0,0,0-3.19-1.12,4.82,4.82,0,0,0-3,.92,2.88,2.88,0,0,0-1.17,2.35h-5.41a6,6,0,0,1,1.31-3.7,8.67,8.67,0,0,1,3.57-2.71,12.62,12.62,0,0,1,5-1,10.11,10.11,0,0,1,6.75,2.13,7.56,7.56,0,0,1,2.58,6V43.11a12.45,12.45,0,0,0,.91,5.19v.38Zm-5.94-3.9a6.18,6.18,0,0,0,3-.78,5.21,5.21,0,0,0,2.12-2.09V37.37h-2.91a8,8,0,0,0-4.52,1,3.4,3.4,0,0,0-1.52,3,3.19,3.19,0,0,0,1,2.49A4,4,0,0,0,398.14,44.78Z"/></g></g></svg>