<?xml version="1.0" encoding="utf-8"?>
<!-- Generator: Adobe Illustrator 22.0.0, SVG Export Plug-In . SVG Version: 6.00 Build 0)  -->
<svg version="1.1" id="f1248760-b706-401a-9a88-490bc0db237b"
	 xmlns="http://www.w3.org/2000/svg" xmlns:xlink="http://www.w3.org/1999/xlink" x="0px" y="0px" viewBox="0 0 654.2 682.1"
	 style="enable-background:new 0 0 654.2 682.1;" xml:space="preserve">
<style type="text/css">
	.st0{fill:#3F3D56;}
	.st1{opacity:0.1;enable-background:new    ;}
	.st2{fill:#0085FF;}
	.st3{fill:#575A89;}
	.st4{fill:#A0616A;}
	.st5{fill:#2F2E41;}
	.st6{fill:#F2F2F2;}
</style>
<title>mathematics</title>
<path class="st0" d="M620,635.6c0,25.7-138.8,46.5-310,46.5S0,661.3,0,635.6c0-18.2,69.6-33.9,171-41.6c41.8-3.2,89-4.9,139-4.9
	c20.5,0,40.6,0.3,60,0.9C512.5,594.2,620,613,620,635.6z"/>
<ellipse class="st1" cx="270" cy="630.6" rx="119" ry="14.5"/>
<ellipse class="st0" cx="269.5" cy="521.1" rx="112.5" ry="120"/>
<rect x="235" y="592.1" class="st2" width="70" height="64"/>
<polygon class="st3" points="396.5,607.6 392.5,629.6 418.5,633.6 435.5,623.6 434.5,607.6 "/>
<path class="st4" d="M265.5,194.6c0,0-2,23-7,24s11,41,11,41h24l19-5l-9-22c0,0-12-16-3-29S265.5,194.6,265.5,194.6z"/>
<path class="st1" d="M265.5,194.6c0,0-2,23-7,24s11,41,11,41h24l19-5l-9-22c0,0-12-16-3-29S265.5,194.6,265.5,194.6z"/>
<path class="st5" d="M215.5,370.6c0,0-26,50-5,60s26,9,26,12s-4,2-2,7s-4,25,2,37s4,21,4,21s0,1,2,5s3,7,2,9s-7,15-1,18s37,5,40,0
	s-3-8,0-11s5-4,3-6s-4-27-4-27s5-29,3-33s-5-8-3-11s4-2,5-6s3-13,3-13l11-1l26,5c0,0,29,32,61,42c0,0,9,9,12,9s3,0,2,2s-4,2-2,4
	s5-1,3,2s-4,3-2,5s-1,13-1,14s-9,95-6,97s45,8,48,0s-2-18-2-18s15-120,11-128s-18-44-93-67c0,0-21-4-21-7s-2-22-6-23s-27-2-27-2
	l-29,9l-40-7L215.5,370.6z"/>
<path class="st5" d="M250.5,538.6l-5,18c0,0-4,29,1,36c3.9,5.5,10.9,12.2,23.9,13.4c7.5,0.7,14.5-3.9,16.8-11.1
	c0.1-0.4,0.2-0.9,0.3-1.3c0-2-3-26-3-26l-5-25l-1-7L250.5,538.6z"/>
<path class="st5" d="M396.5,624.6c0,0-5-5-6,0s-5,26,2,27s74,11,81,7s20-10,12-13s-31-12-31-12s-13-17-15-18s-13,1-18,5
	S396.5,624.6,396.5,624.6z"/>
<circle class="st4" cx="289.5" cy="184.6" r="31"/>
<path class="st3" d="M286.5,254.6l-12-13l-13.3-26c0,0-9.7-3-11.7,2s-38,21-38,21s9,84,5,92s-11,40-5,43s34,0,43,4s35,4,42-1
	s9-9,16-6c6,2.6,19.9-84.8,23.9-110.8c0.7-4.5-1.2-8.9-4.9-11.5c-9-6.3-25.1-17.1-28-15.7C299.5,234.6,286.5,254.6,286.5,254.6z"/>
<path class="st3" d="M329.5,250.6L329.5,250.6c4.8,1.2,8.4,5.3,8.9,10.2l8.1,72.8c0,0-20,43-30,14S329.5,250.6,329.5,250.6z"/>
<path class="st3" d="M327.5,340.6l22-6c0,0,4,28,8,28s-14,16-23,14s-22-9-23-14s9-26,9-26L327.5,340.6z"/>
<path class="st5" d="M266.1,198c2.1-4.6,1.7-10.1,3.5-14.9c3.3-9.2,13.5-14,22.7-10.6c1.5,0.5,2.9,1.3,4.2,2.2
	c2.2,1.6,4.5,3.8,7.2,3.5c2.9-0.3,5.6-3.6,8.3-2.4c3,1.3,2.2,6.7,5.2,8c1.6,0.7,3.5-0.4,4.4-1.8c0.8-1.5,1.2-3.2,1.3-5
	c0.4-4.3,0.8-8.8-1.1-12.6c-0.8-1.3-1.5-2.7-2-4.1c-0.3-1.3-0.5-2.7-0.4-4c0-5-0.4-10.2-2.9-14.6c-2.8-4.8-8-7.9-13.4-9.2
	s-11.1-1.1-16.6-0.7c-9.2,0.8-18.7,2.4-25.9,8.1c-1,0.7-1.8,1.6-2.5,2.6c-0.6,1.2-1.1,2.5-1.3,3.8c-1.6,6.4-3.9,12.5-7,18.3
	c-1.5,2.5-2.7,5.1-3.6,7.8c-0.8,2.8-0.7,5.9,0.9,8.3c1.3,1.9,3.4,3,5,4.5c1.6,1.6,2.4,4.6,4.2,5.7c1.6,1,3.5,0.3,5.1,1.4
	C263.5,193.8,263.7,196.9,266.1,198z"/>
<path class="st6" d="M291.5,269.6l3-6c0,0,44,13,53,25c0,0,22-14,34-12l12,2l-37,33l-47-4L291.5,269.6z"/>
<path class="st2" d="M289.5,263.6l-41,57l59,29c0,0,5.5,3,9.8,0l39.2-18l37-53l-37,19c0,0-4-8-12-4L289.5,263.6z"/>
<path class="st4" d="M352.5,364.6l8-21c0,0,18-23,8-34s-21,32-21,32L352.5,364.6z"/>
<path class="st4" d="M260.2,361.3l17.5-14.2c0,0,27.1-10.9,24-25.4s-34.2,17.1-34.2,17.1L260.2,361.3z"/>
<path class="st1" d="M217,260.1h-1c0,0-15.5-18.5-18.5,6.5s-13,108,13,111s44.5-12.5,44.5-12.5s19-29,12-29c-3.4,0-12.6-1.5-21-1
	c-9,0.6-17,3.1-16.5,0.5C230.5,330.6,245,267.1,217,260.1z"/>
<path class="st3" d="M215.5,240.6l-4-2c0,0-16,3-19,28s-13,108,13,111s61-4,61-4s7-38,0-38s-43,5-42,0S243.5,247.6,215.5,240.6z"/>
<polygon class="st3" points="338,353.1 349,336.2 356,364.1 338,372.1 "/>
<circle class="st6" cx="111.5" cy="85.1" r="27"/>
<rect x="79.5" y="286.1" class="st6" width="64" height="64"/>
<polygon class="st6" points="372,0 388.2,28.1 404.4,56.1 372,56.1 339.6,56.1 355.8,28.1 "/>
<g>
	<path class="st2" d="M501.9,178.7l20.3-53h7.6l21.7,53h-8l-6.2-16h-22.1l-5.8,16H501.9z M517.2,156.9h18l-5.5-14.7
		c-1.7-4.5-2.9-8.1-3.8-11c-0.7,3.4-1.6,6.8-2.9,10.1L517.2,156.9z"/>
	<path class="st2" d="M556.8,178.7v-53h19.9c4,0,7.3,0.5,9.7,1.6c2.4,1.1,4.4,2.7,5.7,5c1.4,2.2,2.1,4.6,2.1,7
		c0,2.3-0.6,4.4-1.8,6.4c-1.2,2-3.1,3.6-5.6,4.8c3.2,0.9,5.7,2.5,7.4,4.8c1.7,2.3,2.6,4.9,2.6,8c0,2.5-0.5,4.8-1.6,6.9
		c-1,2.1-2.3,3.8-3.9,4.9c-1.5,1.2-3.5,2-5.8,2.6c-2.3,0.6-5.2,0.9-8.5,0.9H556.8z M563.8,148h11.5c3.1,0,5.3-0.2,6.7-0.6
		c1.8-0.5,3.1-1.4,4-2.6c0.9-1.2,1.4-2.8,1.4-4.6c0-1.8-0.4-3.3-1.3-4.6c-0.8-1.3-2-2.3-3.6-2.7c-1.6-0.5-4.3-0.7-8.1-0.7h-10.6V148
		z M563.8,172.4H577c2.3,0,3.9-0.1,4.8-0.3c1.6-0.3,3-0.8,4-1.4c1.1-0.7,2-1.7,2.7-2.9c0.7-1.3,1-2.8,1-4.5c0-2-0.5-3.7-1.5-5.1
		c-1-1.5-2.4-2.5-4.2-3.1c-1.8-0.6-4.4-0.9-7.8-0.9h-12.2V172.4z"/>
	<path class="st2" d="M644.2,160.1l7,1.8c-1.5,5.8-4.1,10.1-7.9,13.2c-3.8,3-8.5,4.5-14,4.5c-5.7,0-10.4-1.2-13.9-3.5
		c-3.6-2.3-6.3-5.7-8.2-10.1c-1.9-4.4-2.8-9.1-2.8-14.2c0-5.5,1.1-10.3,3.2-14.4c2.1-4.1,5.1-7.2,9-9.4c3.9-2.1,8.2-3.2,12.8-3.2
		c5.3,0,9.8,1.3,13.4,4c3.6,2.7,6.1,6.5,7.6,11.4l-6.9,1.6c-1.2-3.9-3-6.7-5.3-8.4c-2.3-1.8-5.3-2.6-8.8-2.6c-4.1,0-7.5,1-10.2,2.9
		c-2.7,2-4.7,4.6-5.8,7.9c-1.1,3.3-1.7,6.7-1.7,10.2c0,4.5,0.7,8.4,2,11.8c1.3,3.4,3.4,5.9,6.1,7.5c2.8,1.7,5.8,2.5,9,2.5
		c3.9,0,7.3-1.1,10-3.4C641.4,167.9,643.3,164.6,644.2,160.1z"/>
</g>
</svg>
