<svg width="400" height="360" xmlns="http://www.w3.org/2000/svg">
 <!-- Created with Method Draw - http://github.com/duopixel/Method-Draw/ -->
 <g>
  <title>background</title>
  <rect fill="none" id="canvas_background" height="362" width="402" y="-1" x="-1"/>
  <g display="none" overflow="visible" y="0" x="0" height="100%" width="100%" id="canvasGrid">
   <rect fill="url(#gridpattern)" stroke-width="0" y="0" x="0" height="100%" width="100%"/>
  </g>
 </g>
 <g>
  <title>Layer 1</title>
  <text stroke="#000" transform="matrix(19.20408248901367,0,0,3.754381304770504,-1463.4822112321854,-268.22445051350627) " xml:space="preserve" text-anchor="start" font-family="sans-serif" font-size="22" id="svg_9" y="122.73364" x="80.05263" stroke-opacity="null" stroke-width="0" fill="#243282"/>
  <path stroke="#000" transform="rotate(-90 335.4751281738282,161.57659912109378) " id="svg_27" d="m306.47514,172.82659l39.73,0l0,-22.49999l-6.09,0l12.18,-11.24999l12.18,11.24999l-6.09,0l0,33.74998l-51.91,0l0,-11.25z" fill-opacity="null" stroke-opacity="null" stroke-width="NaN" fill="#91c8eb"/>
  <path stroke="#000" transform="rotate(90 55.475143432617166,231.57659912109378) " id="svg_28" d="m26.47514,242.82659l39.72999,0l0,-22.49999l-6.08999,0l12.17999,-11.24999l12.18001,11.24999l-6.09001,0l0,33.74999l-51.90999,0l0,-11.25z" fill-opacity="null" stroke-opacity="null" stroke-width="NaN" fill="#91c8eb"/>
  <g id="svg_29">
   <rect id="svg_1" height="147" width="280" y="27" x="10" stroke-width="0.5" stroke="#1e3c3c" fill="#2e78be"/>
   <rect id="svg_8" height="28" width="280" y="27" x="9.84434" stroke-width="0.5" stroke="#0f0f00" fill="#91c8eb"/>
   <text font-weight="bold" xml:space="preserve" text-anchor="start" font-family="sans-serif" font-size="22" id="svg_3" y="49" x="135.94745" stroke-opacity="null" stroke-width="0" stroke="#000" fill="#243282">Eu</text>
   <text stroke="#000" transform="matrix(0.6791192201743013,0,0,1.0959105984785857,511.56516282024745,-28.94922504873361) " xml:space="preserve" text-anchor="start" font-family="sans-serif" font-size="22" id="svg_12" y="109.62964" x="-677.88888" stroke-opacity="null" stroke-width="0" fill="#ebf0f0">Contextualizo a informação e</text>
   <text stroke="#000" transform="matrix(0.6791192201743013,0,0,1.0959105984785857,511.56516282024745,-28.94922504873361) " xml:space="preserve" text-anchor="start" font-family="sans-serif" font-size="22" id="svg_14" y="137.00413" x="-674.81856" stroke-opacity="null" stroke-width="0" fill="#ebf0f0">transformo em conhecimento</text>
   <text stroke="#000" transform="matrix(0.6791192201743013,0,0,1.0959105984785857,511.56516282024745,-28.94922504873361) " xml:space="preserve" text-anchor="start" font-family="sans-serif" font-size="22" id="svg_15" y="164.37863" x="-655.88887" stroke-opacity="null" stroke-width="0" fill="#ebf0f0">(monto o quebra-cabeça)</text>
  </g>
  <g id="svg_30">
   <rect stroke="#1e3c3c" id="svg_17" height="120" width="280" y="217" x="109.92216" stroke-width="NaN" fill="#2e78be"/>
   <rect id="svg_18" height="28" width="280" y="217" x="109.92218" stroke-width="NaN" stroke="#0f0f00" fill="#91c8eb"/>
   <text font-weight="bold" xml:space="preserve" text-anchor="start" font-family="sans-serif" font-size="22" id="svg_19" y="239" x="224.87019" stroke-opacity="null" stroke-width="0" stroke="#000" fill="#243282">Você</text>
   <text transform="matrix(0.6791192201743013,0,0,1.0959105984785857,511.56516282024745,-28.94922504873361) " stroke="#000" xml:space="preserve" text-anchor="start" font-family="sans-serif" font-size="22" id="svg_20" y="283.00144" x="-485.05642" stroke-opacity="null" stroke-width="0" fill="#ebf0f0">Acumula informação</text>
   <text transform="matrix(0.6791192201743013,0,0,1.0959105984785857,511.56516282024745,-28.94922504873361) " stroke="#000" xml:space="preserve" text-anchor="start" font-family="sans-serif" font-size="22" id="svg_21" y="310.37594" x="-513.65017" stroke-opacity="null" stroke-width="0" fill="#ebf0f0">(peças do quebra-cabeça)</text>
  </g>
 </g>
</svg>